G04 #@! TF.GenerationSoftware,KiCad,Pcbnew,(5.1.0)-1*
G04 #@! TF.CreationDate,2021-07-17T22:51:43+02:00*
G04 #@! TF.ProjectId,Atari 130XE 1MB,41746172-6920-4313-9330-584520314d42,rev?*
G04 #@! TF.SameCoordinates,Original*
G04 #@! TF.FileFunction,Legend,Bot*
G04 #@! TF.FilePolarity,Positive*
%FSLAX46Y46*%
G04 Gerber Fmt 4.6, Leading zero omitted, Abs format (unit mm)*
G04 Created by KiCad (PCBNEW (5.1.0)-1) date 2021-07-17 22:51:43*
%MOMM*%
%LPD*%
G04 APERTURE LIST*
%ADD10O,1.802000X1.802000*%
%ADD11R,1.802000X1.802000*%
%ADD12R,1.152000X1.602000*%
%ADD13O,1.152000X1.602000*%
%ADD14C,1.702000*%
%ADD15R,1.702000X1.702000*%
%ADD16O,1.702000X1.702000*%
%ADD17C,1.524400*%
%ADD18R,1.524400X1.524400*%
%ADD19R,1.452000X1.452000*%
%ADD20C,2.602000*%
%ADD21C,3.602000*%
%ADD22R,1.602000X1.602000*%
%ADD23C,1.602000*%
%ADD24C,3.102000*%
%ADD25O,1.702000X2.502000*%
%ADD26C,2.102000*%
%ADD27O,3.602000X7.602000*%
%ADD28C,3.302000*%
%ADD29C,2.502000*%
%ADD30O,6.602000X3.102000*%
%ADD31C,4.102000*%
%ADD32C,2.442000*%
%ADD33R,1.402000X1.402000*%
%ADD34C,1.402000*%
%ADD35R,1.702000X2.502000*%
%ADD36C,2.202000*%
%ADD37O,6.102000X3.102000*%
%ADD38O,6.102000X3.602000*%
%ADD39O,4.102000X7.102000*%
%ADD40C,4.602000*%
%ADD41C,4.502000*%
%ADD42C,3.502000*%
%ADD43O,12.102000X15.102000*%
%ADD44O,10.102000X5.102000*%
%ADD45O,5.102000X10.102000*%
%ADD46C,0.254000*%
G04 APERTURE END LIST*
%LPC*%
D10*
X72872600Y-200380600D03*
D11*
X70332600Y-200380600D03*
D10*
X67208400Y-193624200D03*
X64668400Y-193624200D03*
X67208400Y-191084200D03*
X64668400Y-191084200D03*
X67208400Y-188544200D03*
X64668400Y-188544200D03*
X67208400Y-186004200D03*
X64668400Y-186004200D03*
X67208400Y-183464200D03*
D11*
X64668400Y-183464200D03*
D12*
X114630200Y-86233000D03*
D13*
X112090200Y-86233000D03*
X113360200Y-86233000D03*
D12*
X114604800Y-80035400D03*
D13*
X112064800Y-80035400D03*
X113334800Y-80035400D03*
D11*
X89888400Y-95072200D03*
X89888400Y-92183200D03*
X89888400Y-89283200D03*
X71488400Y-97775200D03*
X71488400Y-94775200D03*
X71488400Y-88375200D03*
X71488400Y-85375200D03*
X82888400Y-71075200D03*
X82888400Y-73875200D03*
D14*
X79897600Y-79705200D03*
D15*
X82397600Y-79705200D03*
D11*
X69688400Y-65575200D03*
X69688400Y-71075200D03*
X69688400Y-73875200D03*
D14*
X103363000Y-100609400D03*
X90863000Y-100609400D03*
X103363000Y-103149400D03*
X90863000Y-103149400D03*
X103363000Y-108229400D03*
X90863000Y-108229400D03*
X103363000Y-105689400D03*
X90863000Y-105689400D03*
X103363000Y-110769400D03*
X90863000Y-110769400D03*
X106388400Y-130098800D03*
X93888400Y-130098800D03*
X106388400Y-135178800D03*
X93888400Y-135178800D03*
X106388400Y-140258800D03*
X93888400Y-140258800D03*
X281023700Y-80657700D03*
D15*
X278523700Y-80657700D03*
D14*
X121361200Y-157567000D03*
D15*
X121361200Y-155067000D03*
D14*
X119600000Y-140250000D03*
X114600000Y-140250000D03*
X167059600Y-86512400D03*
X172059600Y-86512400D03*
D16*
X147828000Y-129248400D03*
D14*
X147828000Y-116748400D03*
X127800000Y-140250000D03*
X122800000Y-140250000D03*
X89702000Y-79705200D03*
D15*
X92202000Y-79705200D03*
D14*
X72680200Y-79705200D03*
D15*
X70180200Y-79705200D03*
D10*
X258699000Y-207391000D03*
X261239000Y-207391000D03*
X258699000Y-209931000D03*
D11*
X261239000Y-209931000D03*
D10*
X254635000Y-214985600D03*
X252095000Y-214985600D03*
X254635000Y-212445600D03*
X252095000Y-212445600D03*
X254635000Y-209905600D03*
X252095000Y-209905600D03*
X254635000Y-207365600D03*
D11*
X252095000Y-207365600D03*
D17*
X209448400Y-201218800D03*
X211988400Y-201218800D03*
X214528400Y-201218800D03*
X217068400Y-201218800D03*
X209448400Y-198678800D03*
X211988400Y-198678800D03*
X214528400Y-198678800D03*
X217068400Y-198678800D03*
X217068400Y-203758800D03*
X217068400Y-206298800D03*
X219608400Y-201218800D03*
X219608400Y-203758800D03*
X219608400Y-206298800D03*
X219608400Y-208838800D03*
X217068400Y-208838800D03*
X214528400Y-208838800D03*
X211988400Y-208838800D03*
X209448400Y-208838800D03*
X217068400Y-211378800D03*
X214528400Y-211378800D03*
X211988400Y-211378800D03*
X209448400Y-211378800D03*
X206908400Y-211378800D03*
X204368400Y-201218800D03*
X204368400Y-203758800D03*
X204368400Y-208838800D03*
X204368400Y-206298800D03*
X206908400Y-198678800D03*
X206908400Y-201218800D03*
X206908400Y-208838800D03*
X206908400Y-206298800D03*
D18*
X206908400Y-203758800D03*
D17*
X230987600Y-201244200D03*
X233527600Y-201244200D03*
X236067600Y-201244200D03*
X238607600Y-201244200D03*
X230987600Y-198704200D03*
X233527600Y-198704200D03*
X236067600Y-198704200D03*
X238607600Y-198704200D03*
X238607600Y-203784200D03*
X238607600Y-206324200D03*
X241147600Y-201244200D03*
X241147600Y-203784200D03*
X241147600Y-206324200D03*
X241147600Y-208864200D03*
X238607600Y-208864200D03*
X236067600Y-208864200D03*
X233527600Y-208864200D03*
X230987600Y-208864200D03*
X238607600Y-211404200D03*
X236067600Y-211404200D03*
X233527600Y-211404200D03*
X230987600Y-211404200D03*
X228447600Y-211404200D03*
X225907600Y-201244200D03*
X225907600Y-203784200D03*
X225907600Y-208864200D03*
X225907600Y-206324200D03*
X228447600Y-198704200D03*
X228447600Y-201244200D03*
X228447600Y-208864200D03*
X228447600Y-206324200D03*
D18*
X228447600Y-203784200D03*
D14*
X310692800Y-165640000D03*
D15*
X310692800Y-167640000D03*
D16*
X304800000Y-186864000D03*
X322580000Y-194484000D03*
X307340000Y-186864000D03*
X320040000Y-194484000D03*
X309880000Y-186864000D03*
X317500000Y-194484000D03*
X312420000Y-186864000D03*
X314960000Y-194484000D03*
X314960000Y-186864000D03*
X312420000Y-194484000D03*
X317500000Y-186864000D03*
X309880000Y-194484000D03*
X320040000Y-186864000D03*
X307340000Y-194484000D03*
X322580000Y-186864000D03*
D15*
X304800000Y-194484000D03*
D16*
X87909400Y-104006000D03*
D14*
X87909400Y-111506000D03*
D16*
X64388400Y-103875200D03*
X84708400Y-111495200D03*
X66928400Y-103875200D03*
X82168400Y-111495200D03*
X69468400Y-103875200D03*
X79628400Y-111495200D03*
X72008400Y-103875200D03*
X77088400Y-111495200D03*
X74548400Y-103875200D03*
X74548400Y-111495200D03*
X77088400Y-103875200D03*
X72008400Y-111495200D03*
X79628400Y-103875200D03*
X69468400Y-111495200D03*
X82168400Y-103875200D03*
X66928400Y-111495200D03*
X84708400Y-103875200D03*
D15*
X64388400Y-111495200D03*
D16*
X103124000Y-173037500D03*
X131064000Y-180657500D03*
X105664000Y-173037500D03*
X128524000Y-180657500D03*
X108204000Y-173037500D03*
X125984000Y-180657500D03*
X110744000Y-173037500D03*
X123444000Y-180657500D03*
X113284000Y-173037500D03*
X120904000Y-180657500D03*
X115824000Y-173037500D03*
X118364000Y-180657500D03*
X118364000Y-173037500D03*
X115824000Y-180657500D03*
X120904000Y-173037500D03*
X113284000Y-180657500D03*
X123444000Y-173037500D03*
X110744000Y-180657500D03*
X125984000Y-173037500D03*
X108204000Y-180657500D03*
X128524000Y-173037500D03*
X105664000Y-180657500D03*
X131064000Y-173037500D03*
D15*
X103124000Y-180657500D03*
D14*
X106388400Y-145338800D03*
X93888400Y-145338800D03*
X93890000Y-142798800D03*
X106390000Y-142798800D03*
D10*
X93154500Y-175831500D03*
X93154500Y-173291500D03*
X95694500Y-175831500D03*
D11*
X95694500Y-173291500D03*
D16*
X178568400Y-85635200D03*
X226828400Y-100875200D03*
X181108400Y-85635200D03*
X224288400Y-100875200D03*
X183648400Y-85635200D03*
X221748400Y-100875200D03*
X186188400Y-85635200D03*
X219208400Y-100875200D03*
X188728400Y-85635200D03*
X216668400Y-100875200D03*
X191268400Y-85635200D03*
X214128400Y-100875200D03*
X193808400Y-85635200D03*
X211588400Y-100875200D03*
X196348400Y-85635200D03*
X209048400Y-100875200D03*
X198888400Y-85635200D03*
X206508400Y-100875200D03*
X201428400Y-85635200D03*
X203968400Y-100875200D03*
X203968400Y-85635200D03*
X201428400Y-100875200D03*
X206508400Y-85635200D03*
X198888400Y-100875200D03*
X209048400Y-85635200D03*
X196348400Y-100875200D03*
X211588400Y-85635200D03*
X193808400Y-100875200D03*
X214128400Y-85635200D03*
X191268400Y-100875200D03*
X216668400Y-85635200D03*
X188728400Y-100875200D03*
X219208400Y-85635200D03*
X186188400Y-100875200D03*
X221748400Y-85635200D03*
X183648400Y-100875200D03*
X224288400Y-85635200D03*
X181108400Y-100875200D03*
X226828400Y-85635200D03*
D15*
X178568400Y-100875200D03*
D11*
X158038800Y-62077600D03*
D10*
X135356600Y-62077600D03*
X137896600Y-62077600D03*
X140436600Y-62077600D03*
D11*
X142976600Y-62077600D03*
D10*
X326847200Y-112649000D03*
X329387200Y-112649000D03*
X331927200Y-112649000D03*
D11*
X334467200Y-112649000D03*
D19*
X124390800Y-150825200D03*
X147828000Y-121748400D03*
X142298200Y-189903600D03*
X189915800Y-199411600D03*
X160288400Y-99375200D03*
X167377760Y-109575200D03*
D16*
X88188800Y-232791000D03*
D14*
X88188800Y-222631000D03*
D16*
X85547200Y-232791000D03*
D14*
X85547200Y-222631000D03*
D16*
X160688400Y-75875200D03*
D14*
X160688400Y-88375200D03*
D16*
X134288400Y-115775200D03*
D14*
X134288400Y-103275200D03*
D16*
X113388400Y-103875200D03*
X121008400Y-111495200D03*
X115928400Y-103875200D03*
X118468400Y-111495200D03*
X118468400Y-103875200D03*
X115928400Y-111495200D03*
X121008400Y-103875200D03*
D15*
X113388400Y-111495200D03*
D14*
X131288400Y-113375200D03*
X131288400Y-100875200D03*
X129390800Y-148183600D03*
X116890800Y-148183600D03*
X109888400Y-134375200D03*
X109888400Y-121875200D03*
X113388400Y-121875200D03*
X113388400Y-134375200D03*
X110820200Y-153190600D03*
X110820200Y-140690600D03*
X116888400Y-134375200D03*
X116888400Y-121875200D03*
X115109600Y-118875200D03*
X127609600Y-118875200D03*
X128588400Y-113375200D03*
X128588400Y-100875200D03*
X110893200Y-114401600D03*
X123393200Y-114401600D03*
X125888400Y-115775200D03*
X125888400Y-103275200D03*
X145300700Y-116748400D03*
X145300700Y-129248400D03*
D16*
X120388400Y-134375200D03*
D14*
X120388400Y-121875200D03*
D16*
X129390800Y-150825200D03*
D14*
X116890800Y-150825200D03*
D16*
X94897600Y-95072200D03*
D14*
X82397600Y-95072200D03*
D16*
X116887600Y-145542000D03*
D14*
X129387600Y-145542000D03*
D16*
X278841200Y-186864000D03*
X296621200Y-194484000D03*
X281381200Y-186864000D03*
X294081200Y-194484000D03*
X283921200Y-186864000D03*
X291541200Y-194484000D03*
X286461200Y-186864000D03*
X289001200Y-194484000D03*
X289001200Y-186864000D03*
X286461200Y-194484000D03*
X291541200Y-186864000D03*
X283921200Y-194484000D03*
X294081200Y-186864000D03*
X281381200Y-194484000D03*
X296621200Y-186864000D03*
D15*
X278841200Y-194484000D03*
D16*
X302128400Y-149375200D03*
D14*
X289628400Y-149375200D03*
X256359000Y-177241200D03*
X268859000Y-177241200D03*
X256363000Y-174599600D03*
X268863000Y-174599600D03*
X272748400Y-150875200D03*
X285248400Y-150875200D03*
D16*
X249888400Y-154635200D03*
X298148400Y-169875200D03*
X252428400Y-154635200D03*
X295608400Y-169875200D03*
X254968400Y-154635200D03*
X293068400Y-169875200D03*
X257508400Y-154635200D03*
X290528400Y-169875200D03*
X260048400Y-154635200D03*
X287988400Y-169875200D03*
X262588400Y-154635200D03*
X285448400Y-169875200D03*
X265128400Y-154635200D03*
X282908400Y-169875200D03*
X267668400Y-154635200D03*
X280368400Y-169875200D03*
X270208400Y-154635200D03*
X277828400Y-169875200D03*
X272748400Y-154635200D03*
X275288400Y-169875200D03*
X275288400Y-154635200D03*
X272748400Y-169875200D03*
X277828400Y-154635200D03*
X270208400Y-169875200D03*
X280368400Y-154635200D03*
X267668400Y-169875200D03*
X282908400Y-154635200D03*
X265128400Y-169875200D03*
X285448400Y-154635200D03*
X262588400Y-169875200D03*
X287988400Y-154635200D03*
X260048400Y-169875200D03*
X290528400Y-154635200D03*
X257508400Y-169875200D03*
X293068400Y-154635200D03*
X254968400Y-169875200D03*
X295608400Y-154635200D03*
X252428400Y-169875200D03*
X298148400Y-154635200D03*
D15*
X249888400Y-169875200D03*
D10*
X342808400Y-208875200D03*
X340268400Y-208875200D03*
X337728400Y-208875200D03*
X335188400Y-208875200D03*
X332648400Y-208875200D03*
X330108400Y-208875200D03*
X327568400Y-208875200D03*
X325028400Y-208875200D03*
X322488400Y-208875200D03*
X319948400Y-208875200D03*
X317408400Y-208875200D03*
X314868400Y-208875200D03*
X312328400Y-208875200D03*
X309788400Y-208875200D03*
X307248400Y-208875200D03*
X304708400Y-208875200D03*
X302168400Y-208875200D03*
X299628400Y-208875200D03*
X297088400Y-208875200D03*
X294548400Y-208875200D03*
X292008400Y-208875200D03*
X289468400Y-208875200D03*
X286928400Y-208875200D03*
D11*
X284388400Y-208875200D03*
D20*
X308528400Y-61875200D03*
X310308400Y-58875200D03*
D21*
X299208400Y-50875200D03*
X339208400Y-50875200D03*
D20*
X313868400Y-58875200D03*
X317428400Y-58875200D03*
X320988400Y-58875200D03*
X324548400Y-58875200D03*
X328108400Y-58875200D03*
X312088400Y-61875200D03*
X315648400Y-61875200D03*
X319208400Y-61875200D03*
X322768400Y-61875200D03*
X326328400Y-61875200D03*
X329888400Y-61875200D03*
D16*
X249888400Y-110635200D03*
X298148400Y-125875200D03*
X252428400Y-110635200D03*
X295608400Y-125875200D03*
X254968400Y-110635200D03*
X293068400Y-125875200D03*
X257508400Y-110635200D03*
X290528400Y-125875200D03*
X260048400Y-110635200D03*
X287988400Y-125875200D03*
X262588400Y-110635200D03*
X285448400Y-125875200D03*
X265128400Y-110635200D03*
X282908400Y-125875200D03*
X267668400Y-110635200D03*
X280368400Y-125875200D03*
X270208400Y-110635200D03*
X277828400Y-125875200D03*
X272748400Y-110635200D03*
X275288400Y-125875200D03*
X275288400Y-110635200D03*
X272748400Y-125875200D03*
X277828400Y-110635200D03*
X270208400Y-125875200D03*
X280368400Y-110635200D03*
X267668400Y-125875200D03*
X282908400Y-110635200D03*
X265128400Y-125875200D03*
X285448400Y-110635200D03*
X262588400Y-125875200D03*
X287988400Y-110635200D03*
X260048400Y-125875200D03*
X290528400Y-110635200D03*
X257508400Y-125875200D03*
X293068400Y-110635200D03*
X254968400Y-125875200D03*
X295608400Y-110635200D03*
X252428400Y-125875200D03*
X298148400Y-110635200D03*
D15*
X249888400Y-125875200D03*
D22*
X258546600Y-83693000D03*
D23*
X258546600Y-88773000D03*
X261086600Y-86233000D03*
D22*
X138888400Y-158292800D03*
D23*
X143968400Y-158292800D03*
X141428400Y-155752800D03*
D22*
X148564600Y-79781400D03*
D23*
X148564600Y-84861400D03*
X151104600Y-82321400D03*
D22*
X151739600Y-111875200D03*
D23*
X156819600Y-111875200D03*
X154279600Y-109335200D03*
D16*
X163088400Y-91871800D03*
D15*
X163088400Y-104571800D03*
D16*
X165788400Y-91871800D03*
D15*
X165788400Y-104571800D03*
D16*
X333629000Y-186864000D03*
X341249000Y-194484000D03*
X336169000Y-186864000D03*
X338709000Y-194484000D03*
X338709000Y-186864000D03*
X336169000Y-194484000D03*
X341249000Y-186864000D03*
D15*
X333629000Y-194484000D03*
D24*
X251800000Y-58435200D03*
X223860000Y-58435200D03*
D25*
X221320000Y-71975200D03*
X223860000Y-71975200D03*
X226400000Y-71975200D03*
X228940000Y-71975200D03*
X231480000Y-71975200D03*
X234020000Y-71975200D03*
X236560000Y-71975200D03*
X239100000Y-71975200D03*
X241640000Y-71975200D03*
X244180000Y-71975200D03*
X246720000Y-71975200D03*
X249260000Y-71975200D03*
X251800000Y-71975200D03*
X254340000Y-71975200D03*
X256880000Y-71975200D03*
X221320000Y-66895200D03*
X223860000Y-66895200D03*
X226400000Y-66895200D03*
X228940000Y-66895200D03*
X231480000Y-66895200D03*
X234020000Y-66895200D03*
X236560000Y-66895200D03*
X239100000Y-66895200D03*
X241640000Y-66895200D03*
X244180000Y-66895200D03*
X246720000Y-66895200D03*
X249260000Y-66895200D03*
X251800000Y-66895200D03*
X254340000Y-66895200D03*
X256880000Y-66895200D03*
D16*
X148808400Y-162049800D03*
X171668400Y-169669800D03*
X151348400Y-162049800D03*
X169128400Y-169669800D03*
X153888400Y-162049800D03*
X166588400Y-169669800D03*
X156428400Y-162049800D03*
X164048400Y-169669800D03*
X158968400Y-162049800D03*
X161508400Y-169669800D03*
X161508400Y-162049800D03*
X158968400Y-169669800D03*
X164048400Y-162049800D03*
X156428400Y-169669800D03*
X166588400Y-162049800D03*
X153888400Y-169669800D03*
X169128400Y-162049800D03*
X151348400Y-169669800D03*
X171668400Y-162049800D03*
D15*
X148808400Y-169669800D03*
D16*
X249888400Y-136255200D03*
X267668400Y-143875200D03*
X252428400Y-136255200D03*
X265128400Y-143875200D03*
X254968400Y-136255200D03*
X262588400Y-143875200D03*
X257508400Y-136255200D03*
X260048400Y-143875200D03*
X260048400Y-136255200D03*
X257508400Y-143875200D03*
X262588400Y-136255200D03*
X254968400Y-143875200D03*
X265128400Y-136255200D03*
X252428400Y-143875200D03*
X267668400Y-136255200D03*
D15*
X249888400Y-143875200D03*
D14*
X171377000Y-174875200D03*
X158877000Y-174875200D03*
X137309200Y-173075200D03*
X149809200Y-173075200D03*
X137309200Y-175975200D03*
X149809200Y-175975200D03*
X270888400Y-136875200D03*
X283388400Y-136875200D03*
D26*
X352488400Y-86250200D03*
X352488400Y-89000200D03*
X352488400Y-91750200D03*
X352488400Y-94500200D03*
X349888400Y-84875200D03*
X349888400Y-87625200D03*
X349888400Y-95875200D03*
X349888400Y-93125200D03*
X349888400Y-90375200D03*
D27*
X358288400Y-90375200D03*
D28*
X359888400Y-102875200D03*
X359888400Y-77875200D03*
D26*
X352488400Y-54250200D03*
X352488400Y-57000200D03*
X352488400Y-59750200D03*
X352488400Y-62500200D03*
X349888400Y-52875200D03*
X349888400Y-55625200D03*
X349888400Y-63875200D03*
X349888400Y-61125200D03*
X349888400Y-58375200D03*
D27*
X358288400Y-58375200D03*
D28*
X359888400Y-70875200D03*
X359888400Y-45875200D03*
D16*
X137309200Y-178975200D03*
D14*
X149809200Y-178975200D03*
X173888400Y-104375200D03*
X173888400Y-91875200D03*
X177388400Y-78435200D03*
X164888400Y-78435200D03*
X177388400Y-75875200D03*
X164888400Y-75875200D03*
D29*
X141688400Y-50425200D03*
X156688400Y-50425200D03*
D30*
X145388400Y-45425200D03*
X152988400Y-45425200D03*
D24*
X144188400Y-57925200D03*
X154188400Y-57925200D03*
X156688400Y-55425200D03*
X141688400Y-55425200D03*
X149188400Y-55425200D03*
D14*
X149098000Y-143875200D03*
D15*
X149098000Y-145875200D03*
D16*
X157962600Y-116560600D03*
D15*
X157962600Y-129260600D03*
D23*
X178888400Y-216775200D03*
X178888400Y-211875200D03*
D16*
X175888400Y-183255200D03*
X191128400Y-190875200D03*
X178428400Y-183255200D03*
X188588400Y-190875200D03*
X180968400Y-183255200D03*
X186048400Y-190875200D03*
X183508400Y-183255200D03*
X183508400Y-190875200D03*
X186048400Y-183255200D03*
X180968400Y-190875200D03*
X188588400Y-183255200D03*
X178428400Y-190875200D03*
X191128400Y-183255200D03*
D15*
X175888400Y-190875200D03*
D16*
X152888400Y-133255200D03*
X170668400Y-140875200D03*
X155428400Y-133255200D03*
X168128400Y-140875200D03*
X157968400Y-133255200D03*
X165588400Y-140875200D03*
X160508400Y-133255200D03*
X163048400Y-140875200D03*
X163048400Y-133255200D03*
X160508400Y-140875200D03*
X165588400Y-133255200D03*
X157968400Y-140875200D03*
X168128400Y-133255200D03*
X155428400Y-140875200D03*
X170668400Y-133255200D03*
D15*
X152888400Y-140875200D03*
D16*
X178568400Y-111635200D03*
X226828400Y-126875200D03*
X181108400Y-111635200D03*
X224288400Y-126875200D03*
X183648400Y-111635200D03*
X221748400Y-126875200D03*
X186188400Y-111635200D03*
X219208400Y-126875200D03*
X188728400Y-111635200D03*
X216668400Y-126875200D03*
X191268400Y-111635200D03*
X214128400Y-126875200D03*
X193808400Y-111635200D03*
X211588400Y-126875200D03*
X196348400Y-111635200D03*
X209048400Y-126875200D03*
X198888400Y-111635200D03*
X206508400Y-126875200D03*
X201428400Y-111635200D03*
X203968400Y-126875200D03*
X203968400Y-111635200D03*
X201428400Y-126875200D03*
X206508400Y-111635200D03*
X198888400Y-126875200D03*
X209048400Y-111635200D03*
X196348400Y-126875200D03*
X211588400Y-111635200D03*
X193808400Y-126875200D03*
X214128400Y-111635200D03*
X191268400Y-126875200D03*
X216668400Y-111635200D03*
X188728400Y-126875200D03*
X219208400Y-111635200D03*
X186188400Y-126875200D03*
X221748400Y-111635200D03*
X183648400Y-126875200D03*
X224288400Y-111635200D03*
X181108400Y-126875200D03*
X226828400Y-111635200D03*
D15*
X178568400Y-126875200D03*
D31*
X133883800Y-129846600D03*
D32*
X131383800Y-124846600D03*
X133883800Y-134846600D03*
X136383800Y-124846600D03*
D14*
X149482200Y-150444200D03*
X136982200Y-150444200D03*
X153720800Y-75875200D03*
X153720800Y-88375200D03*
X149482200Y-153339800D03*
X136982200Y-153339800D03*
X145900800Y-161493200D03*
X133400800Y-161493200D03*
X152882600Y-116748400D03*
X152882600Y-129248400D03*
X178129200Y-206911600D03*
X178129200Y-194411600D03*
X171377000Y-177725200D03*
X158877000Y-177725200D03*
X137309200Y-181903600D03*
X149809200Y-181903600D03*
X158873800Y-180568600D03*
X171373800Y-180568600D03*
X170129200Y-194408400D03*
X170129200Y-206908400D03*
X144888400Y-88375200D03*
X144888400Y-75875200D03*
X140888400Y-75875200D03*
X140888400Y-88375200D03*
X150342600Y-129248400D03*
X150342600Y-116748400D03*
X160502600Y-129248400D03*
X160502600Y-116748400D03*
X163042600Y-129248400D03*
X163042600Y-116748400D03*
X165582600Y-129248400D03*
X165582600Y-116748400D03*
X168122600Y-129248400D03*
X168122600Y-116748400D03*
X155422600Y-116748400D03*
X155422600Y-129248400D03*
X160502600Y-144375200D03*
X160502600Y-156875200D03*
X168122600Y-144375200D03*
X168122600Y-156875200D03*
X165582600Y-144375200D03*
X165582600Y-156875200D03*
X163042600Y-144375200D03*
X163042600Y-156875200D03*
X170668400Y-144375200D03*
X170668400Y-156875200D03*
X168488400Y-91875200D03*
X168488400Y-104375200D03*
X171188400Y-104375200D03*
X171188400Y-91875200D03*
X159888400Y-112095200D03*
X172388400Y-112095200D03*
X157962600Y-144370400D03*
X157962600Y-156870400D03*
X170662600Y-129248400D03*
X170662600Y-116748400D03*
D33*
X171323000Y-188518800D03*
D34*
X171323000Y-185978800D03*
X170053000Y-187248800D03*
D16*
X133832600Y-157813400D03*
D14*
X133832600Y-145313400D03*
D16*
X182129200Y-206911600D03*
D14*
X182129200Y-194411600D03*
D16*
X149798200Y-185903600D03*
D14*
X137298200Y-185903600D03*
D16*
X155428400Y-144375200D03*
D14*
X155428400Y-156875200D03*
D16*
X141837600Y-135353400D03*
D14*
X141837600Y-147853400D03*
D16*
X138837600Y-147856600D03*
D14*
X138837600Y-135356600D03*
D16*
X156888400Y-88375200D03*
D14*
X156888400Y-75875200D03*
D16*
X189915800Y-206911600D03*
D14*
X189915800Y-194411600D03*
D16*
X149798200Y-189903600D03*
D14*
X137298200Y-189903600D03*
D16*
X149798200Y-193903600D03*
D14*
X137298200Y-193903600D03*
D16*
X186129200Y-206911600D03*
D14*
X186129200Y-194411600D03*
D16*
X174129200Y-206911600D03*
D14*
X174129200Y-194411600D03*
D16*
X189788400Y-179875200D03*
D14*
X177288400Y-179875200D03*
D16*
X144983200Y-135353400D03*
D14*
X144983200Y-147853400D03*
D16*
X149188400Y-104375200D03*
D14*
X149188400Y-91875200D03*
D16*
X152488400Y-104375200D03*
D14*
X152488400Y-91875200D03*
D16*
X155888400Y-104375200D03*
D14*
X155888400Y-91875200D03*
D16*
X160288400Y-104375200D03*
D14*
X160288400Y-91875200D03*
D16*
X172377760Y-109570520D03*
D14*
X159877760Y-109570520D03*
D16*
X178533400Y-157875200D03*
D14*
X191033400Y-157875200D03*
D16*
X178558800Y-105875200D03*
D14*
X191058800Y-105875200D03*
D16*
X176988400Y-131875200D03*
D14*
X189488400Y-131875200D03*
D16*
X178568400Y-136635200D03*
X226828400Y-151875200D03*
X181108400Y-136635200D03*
X224288400Y-151875200D03*
X183648400Y-136635200D03*
X221748400Y-151875200D03*
X186188400Y-136635200D03*
X219208400Y-151875200D03*
X188728400Y-136635200D03*
X216668400Y-151875200D03*
X191268400Y-136635200D03*
X214128400Y-151875200D03*
X193808400Y-136635200D03*
X211588400Y-151875200D03*
X196348400Y-136635200D03*
X209048400Y-151875200D03*
X198888400Y-136635200D03*
X206508400Y-151875200D03*
X201428400Y-136635200D03*
X203968400Y-151875200D03*
X203968400Y-136635200D03*
X201428400Y-151875200D03*
X206508400Y-136635200D03*
X198888400Y-151875200D03*
X209048400Y-136635200D03*
X196348400Y-151875200D03*
X211588400Y-136635200D03*
X193808400Y-151875200D03*
X214128400Y-136635200D03*
X191268400Y-151875200D03*
X216668400Y-136635200D03*
X188728400Y-151875200D03*
X219208400Y-136635200D03*
X186188400Y-151875200D03*
X221748400Y-136635200D03*
X183648400Y-151875200D03*
X224288400Y-136635200D03*
X181108400Y-151875200D03*
X226828400Y-136635200D03*
D15*
X178568400Y-151875200D03*
D19*
X96570800Y-232587800D03*
X96567000Y-229844600D03*
D24*
X188380000Y-58415200D03*
D25*
X180760000Y-71955200D03*
X183300000Y-71955200D03*
X185840000Y-71955200D03*
X188380000Y-71955200D03*
X190920000Y-71955200D03*
X193460000Y-71955200D03*
X196000000Y-71955200D03*
X180760000Y-66875200D03*
X183300000Y-66875200D03*
X185840000Y-66875200D03*
X188380000Y-66875200D03*
X190920000Y-66875200D03*
X193460000Y-66875200D03*
D35*
X196000000Y-66875200D03*
D16*
X286888400Y-138255200D03*
X302128400Y-145875200D03*
X289428400Y-138255200D03*
X299588400Y-145875200D03*
X291968400Y-138255200D03*
X297048400Y-145875200D03*
X294508400Y-138255200D03*
X294508400Y-145875200D03*
X297048400Y-138255200D03*
X291968400Y-145875200D03*
X299588400Y-138255200D03*
X289428400Y-145875200D03*
X302128400Y-138255200D03*
D15*
X286888400Y-145875200D03*
D14*
X164888400Y-80975200D03*
X177388400Y-80975200D03*
D16*
X72999600Y-203628600D03*
D14*
X72999600Y-216128600D03*
D23*
X80873600Y-232560200D03*
X80873600Y-227660200D03*
D16*
X76888400Y-203635200D03*
X125148400Y-218875200D03*
X79428400Y-203635200D03*
X122608400Y-218875200D03*
X81968400Y-203635200D03*
X120068400Y-218875200D03*
X84508400Y-203635200D03*
X117528400Y-218875200D03*
X87048400Y-203635200D03*
X114988400Y-218875200D03*
X89588400Y-203635200D03*
X112448400Y-218875200D03*
X92128400Y-203635200D03*
X109908400Y-218875200D03*
X94668400Y-203635200D03*
X107368400Y-218875200D03*
X97208400Y-203635200D03*
X104828400Y-218875200D03*
X99748400Y-203635200D03*
X102288400Y-218875200D03*
X102288400Y-203635200D03*
X99748400Y-218875200D03*
X104828400Y-203635200D03*
X97208400Y-218875200D03*
X107368400Y-203635200D03*
X94668400Y-218875200D03*
X109908400Y-203635200D03*
X92128400Y-218875200D03*
X112448400Y-203635200D03*
X89588400Y-218875200D03*
X114988400Y-203635200D03*
X87048400Y-218875200D03*
X117528400Y-203635200D03*
X84508400Y-218875200D03*
X120068400Y-203635200D03*
X81968400Y-218875200D03*
X122608400Y-203635200D03*
X79428400Y-218875200D03*
X125148400Y-203635200D03*
D15*
X76888400Y-218875200D03*
D14*
X142370200Y-206019400D03*
X129870200Y-206019400D03*
D16*
X104067000Y-232587800D03*
D14*
X91567000Y-232587800D03*
D16*
X104067000Y-229844600D03*
D14*
X91567000Y-229844600D03*
D16*
X69723000Y-216131800D03*
D14*
X69723000Y-203631800D03*
D16*
X64388400Y-116555200D03*
X84708400Y-124175200D03*
X66928400Y-116555200D03*
X82168400Y-124175200D03*
X69468400Y-116555200D03*
X79628400Y-124175200D03*
X72008400Y-116555200D03*
X77088400Y-124175200D03*
X74548400Y-116555200D03*
X74548400Y-124175200D03*
X77088400Y-116555200D03*
X72008400Y-124175200D03*
X79628400Y-116555200D03*
X69468400Y-124175200D03*
X82168400Y-116555200D03*
X66928400Y-124175200D03*
X84708400Y-116555200D03*
D15*
X64388400Y-124175200D03*
D14*
X103388400Y-121875200D03*
X90888400Y-121875200D03*
X103363000Y-118383200D03*
X90863000Y-118383200D03*
X106388400Y-132638800D03*
X93888400Y-132638800D03*
X106388400Y-137718800D03*
X93888400Y-137718800D03*
X106388400Y-127558800D03*
X93888400Y-127558800D03*
X106388400Y-124875200D03*
X93888400Y-124875200D03*
X103363000Y-113309400D03*
X90863000Y-113309400D03*
X103363000Y-115849400D03*
X90863000Y-115849400D03*
D16*
X87934800Y-116680600D03*
D14*
X87934800Y-124180600D03*
D16*
X137488400Y-115775200D03*
D14*
X137488400Y-103275200D03*
D16*
X82388400Y-85883200D03*
D14*
X94888400Y-85883200D03*
D16*
X140888400Y-115776400D03*
D14*
X140888400Y-103276400D03*
D16*
X82388400Y-92183200D03*
D14*
X94888400Y-92183200D03*
D16*
X82388400Y-89283200D03*
D14*
X94888400Y-89283200D03*
D16*
X77888400Y-65675200D03*
D14*
X90388400Y-65675200D03*
D16*
X62188400Y-73875200D03*
D14*
X74688400Y-73875200D03*
D16*
X90388400Y-73875200D03*
D14*
X77888400Y-73875200D03*
D16*
X90388400Y-71075200D03*
D14*
X77888400Y-71075200D03*
D16*
X74688400Y-71075200D03*
D14*
X62188400Y-71075200D03*
D16*
X74688400Y-65575200D03*
D14*
X62188400Y-65575200D03*
D16*
X66488400Y-91575200D03*
D14*
X78988400Y-91575200D03*
D16*
X66488400Y-97775200D03*
D14*
X78988400Y-97775200D03*
D16*
X66488400Y-94775200D03*
D14*
X78988400Y-94775200D03*
D16*
X78988400Y-88375200D03*
D14*
X66488400Y-88375200D03*
D16*
X78988400Y-85375200D03*
D14*
X66488400Y-85375200D03*
X49717800Y-74371200D03*
D15*
X53517800Y-74371200D03*
D36*
X123548400Y-98275200D03*
X121008400Y-98275200D03*
X118468400Y-98275200D03*
X115928400Y-98275200D03*
X113388400Y-98275200D03*
D37*
X111888400Y-94975200D03*
D38*
X111888400Y-46975200D03*
D39*
X129838400Y-70975200D03*
X99838400Y-70975200D03*
D29*
X71388400Y-50425200D03*
X86388400Y-50425200D03*
D30*
X75088400Y-45425200D03*
X82688400Y-45425200D03*
D24*
X86388400Y-60425200D03*
X71388400Y-60425200D03*
X83888400Y-57925200D03*
X73888400Y-57925200D03*
X86388400Y-55425200D03*
X71388400Y-55425200D03*
X78888400Y-55425200D03*
D21*
X60888400Y-51375200D03*
X55888400Y-51375200D03*
D28*
X58388400Y-63875200D03*
X58388400Y-71375200D03*
X58388400Y-67625200D03*
D40*
X120888400Y-70875200D03*
X104000000Y-69875200D03*
D41*
X328888400Y-96875200D03*
X58888400Y-86875200D03*
X360888400Y-216875200D03*
X56888400Y-216875200D03*
D42*
X134888400Y-46875200D03*
X283888400Y-46875200D03*
X345888400Y-46875200D03*
X360888400Y-227875200D03*
X196888400Y-239875200D03*
X56888400Y-228875200D03*
X50888400Y-46875200D03*
D43*
X258888400Y-189875200D03*
X158888400Y-189875200D03*
D44*
X318888400Y-68875200D03*
D45*
X363888400Y-169875200D03*
D44*
X288888400Y-239875200D03*
X148888400Y-239875200D03*
D45*
X51888400Y-169875200D03*
X51888400Y-101875200D03*
D44*
X148888400Y-68875200D03*
D46*
G36*
X370761400Y-146748200D02*
G01*
X364888400Y-146748200D01*
X364863624Y-146750640D01*
X364839799Y-146757867D01*
X364817843Y-146769603D01*
X364798597Y-146785397D01*
X364782803Y-146804643D01*
X364771067Y-146826599D01*
X364763840Y-146850424D01*
X364761400Y-146875200D01*
X364761400Y-157875200D01*
X364763840Y-157899976D01*
X364771067Y-157923801D01*
X364782803Y-157945757D01*
X364798597Y-157965003D01*
X364817843Y-157980797D01*
X364839799Y-157992533D01*
X364863624Y-157999760D01*
X364888400Y-158002200D01*
X370761400Y-158002200D01*
X370761400Y-179748200D01*
X364888400Y-179748200D01*
X364863624Y-179750640D01*
X364839799Y-179757867D01*
X364817843Y-179769603D01*
X364798597Y-179785397D01*
X364782803Y-179804643D01*
X364771067Y-179826599D01*
X364763840Y-179850424D01*
X364761400Y-179875200D01*
X364761400Y-190875200D01*
X364763840Y-190899976D01*
X364771067Y-190923801D01*
X364782803Y-190945757D01*
X364798597Y-190965003D01*
X364817843Y-190980797D01*
X364839799Y-190992533D01*
X364863624Y-190999760D01*
X364888400Y-191002200D01*
X370761400Y-191002200D01*
X370761400Y-221748200D01*
X364888400Y-221748200D01*
X364863624Y-221750640D01*
X364839799Y-221757867D01*
X364817843Y-221769603D01*
X364798597Y-221785397D01*
X364782803Y-221804643D01*
X364771067Y-221826599D01*
X364763840Y-221850424D01*
X364761400Y-221875200D01*
X364761400Y-246748200D01*
X53015400Y-246748200D01*
X53015400Y-221875200D01*
X53012960Y-221850424D01*
X53005733Y-221826599D01*
X52993997Y-221804643D01*
X52978203Y-221785397D01*
X52958957Y-221769603D01*
X52937001Y-221757867D01*
X52913176Y-221750640D01*
X52888400Y-221748200D01*
X47015400Y-221748200D01*
X47015400Y-191002200D01*
X52888400Y-191002200D01*
X52913176Y-190999760D01*
X52937001Y-190992533D01*
X52958957Y-190980797D01*
X52978203Y-190965003D01*
X52993997Y-190945757D01*
X53005733Y-190923801D01*
X53012960Y-190899976D01*
X53015400Y-190875200D01*
X53015400Y-179875200D01*
X53012960Y-179850424D01*
X53005733Y-179826599D01*
X52993997Y-179804643D01*
X52978203Y-179785397D01*
X52958957Y-179769603D01*
X52937001Y-179757867D01*
X52913176Y-179750640D01*
X52888400Y-179748200D01*
X47015400Y-179748200D01*
X47015400Y-158002200D01*
X52888400Y-158002200D01*
X52913176Y-157999760D01*
X52937001Y-157992533D01*
X52958957Y-157980797D01*
X52978203Y-157965003D01*
X52993997Y-157945757D01*
X53005733Y-157923801D01*
X53012960Y-157899976D01*
X53015400Y-157875200D01*
X53015400Y-146875200D01*
X53012960Y-146850424D01*
X53005733Y-146826599D01*
X52993997Y-146804643D01*
X52978203Y-146785397D01*
X52958957Y-146769603D01*
X52937001Y-146757867D01*
X52913176Y-146750640D01*
X52888400Y-146748200D01*
X47015400Y-146748200D01*
X47015400Y-96002200D01*
X55761400Y-96002200D01*
X55761400Y-198375200D01*
X55763840Y-198399976D01*
X55771067Y-198423801D01*
X55782803Y-198445757D01*
X55803441Y-198469598D01*
X60761400Y-202931761D01*
X60761400Y-237875200D01*
X60763840Y-237899976D01*
X60771067Y-237923801D01*
X60782803Y-237945757D01*
X60798597Y-237965003D01*
X61798597Y-238965003D01*
X61817843Y-238980797D01*
X61839799Y-238992533D01*
X61863624Y-238999760D01*
X61888400Y-239002200D01*
X129888400Y-239002200D01*
X129913176Y-238999760D01*
X129937001Y-238992533D01*
X129958957Y-238980797D01*
X129978203Y-238965003D01*
X130941006Y-238002200D01*
X348888400Y-238002200D01*
X348913176Y-237999760D01*
X348937001Y-237992533D01*
X348958957Y-237980797D01*
X348978203Y-237965003D01*
X348993997Y-237945757D01*
X349005733Y-237923801D01*
X349012960Y-237899976D01*
X349015400Y-237875200D01*
X349015400Y-203923485D01*
X352983321Y-199459574D01*
X352997958Y-199439435D01*
X353008384Y-199416827D01*
X353014200Y-199392619D01*
X353015400Y-199375200D01*
X353015400Y-196927806D01*
X358478203Y-191465003D01*
X358493997Y-191445757D01*
X358505733Y-191423801D01*
X358512960Y-191399976D01*
X358515400Y-191375200D01*
X358515400Y-106002200D01*
X361888400Y-106002200D01*
X361913176Y-105999760D01*
X361937001Y-105992533D01*
X361958957Y-105980797D01*
X361978203Y-105965003D01*
X361993997Y-105945757D01*
X362005733Y-105923801D01*
X362012960Y-105899976D01*
X362015400Y-105875200D01*
X362015400Y-74002200D01*
X370761400Y-74002200D01*
X370761400Y-146748200D01*
X370761400Y-146748200D01*
G37*
X370761400Y-146748200D02*
X364888400Y-146748200D01*
X364863624Y-146750640D01*
X364839799Y-146757867D01*
X364817843Y-146769603D01*
X364798597Y-146785397D01*
X364782803Y-146804643D01*
X364771067Y-146826599D01*
X364763840Y-146850424D01*
X364761400Y-146875200D01*
X364761400Y-157875200D01*
X364763840Y-157899976D01*
X364771067Y-157923801D01*
X364782803Y-157945757D01*
X364798597Y-157965003D01*
X364817843Y-157980797D01*
X364839799Y-157992533D01*
X364863624Y-157999760D01*
X364888400Y-158002200D01*
X370761400Y-158002200D01*
X370761400Y-179748200D01*
X364888400Y-179748200D01*
X364863624Y-179750640D01*
X364839799Y-179757867D01*
X364817843Y-179769603D01*
X364798597Y-179785397D01*
X364782803Y-179804643D01*
X364771067Y-179826599D01*
X364763840Y-179850424D01*
X364761400Y-179875200D01*
X364761400Y-190875200D01*
X364763840Y-190899976D01*
X364771067Y-190923801D01*
X364782803Y-190945757D01*
X364798597Y-190965003D01*
X364817843Y-190980797D01*
X364839799Y-190992533D01*
X364863624Y-190999760D01*
X364888400Y-191002200D01*
X370761400Y-191002200D01*
X370761400Y-221748200D01*
X364888400Y-221748200D01*
X364863624Y-221750640D01*
X364839799Y-221757867D01*
X364817843Y-221769603D01*
X364798597Y-221785397D01*
X364782803Y-221804643D01*
X364771067Y-221826599D01*
X364763840Y-221850424D01*
X364761400Y-221875200D01*
X364761400Y-246748200D01*
X53015400Y-246748200D01*
X53015400Y-221875200D01*
X53012960Y-221850424D01*
X53005733Y-221826599D01*
X52993997Y-221804643D01*
X52978203Y-221785397D01*
X52958957Y-221769603D01*
X52937001Y-221757867D01*
X52913176Y-221750640D01*
X52888400Y-221748200D01*
X47015400Y-221748200D01*
X47015400Y-191002200D01*
X52888400Y-191002200D01*
X52913176Y-190999760D01*
X52937001Y-190992533D01*
X52958957Y-190980797D01*
X52978203Y-190965003D01*
X52993997Y-190945757D01*
X53005733Y-190923801D01*
X53012960Y-190899976D01*
X53015400Y-190875200D01*
X53015400Y-179875200D01*
X53012960Y-179850424D01*
X53005733Y-179826599D01*
X52993997Y-179804643D01*
X52978203Y-179785397D01*
X52958957Y-179769603D01*
X52937001Y-179757867D01*
X52913176Y-179750640D01*
X52888400Y-179748200D01*
X47015400Y-179748200D01*
X47015400Y-158002200D01*
X52888400Y-158002200D01*
X52913176Y-157999760D01*
X52937001Y-157992533D01*
X52958957Y-157980797D01*
X52978203Y-157965003D01*
X52993997Y-157945757D01*
X53005733Y-157923801D01*
X53012960Y-157899976D01*
X53015400Y-157875200D01*
X53015400Y-146875200D01*
X53012960Y-146850424D01*
X53005733Y-146826599D01*
X52993997Y-146804643D01*
X52978203Y-146785397D01*
X52958957Y-146769603D01*
X52937001Y-146757867D01*
X52913176Y-146750640D01*
X52888400Y-146748200D01*
X47015400Y-146748200D01*
X47015400Y-96002200D01*
X55761400Y-96002200D01*
X55761400Y-198375200D01*
X55763840Y-198399976D01*
X55771067Y-198423801D01*
X55782803Y-198445757D01*
X55803441Y-198469598D01*
X60761400Y-202931761D01*
X60761400Y-237875200D01*
X60763840Y-237899976D01*
X60771067Y-237923801D01*
X60782803Y-237945757D01*
X60798597Y-237965003D01*
X61798597Y-238965003D01*
X61817843Y-238980797D01*
X61839799Y-238992533D01*
X61863624Y-238999760D01*
X61888400Y-239002200D01*
X129888400Y-239002200D01*
X129913176Y-238999760D01*
X129937001Y-238992533D01*
X129958957Y-238980797D01*
X129978203Y-238965003D01*
X130941006Y-238002200D01*
X348888400Y-238002200D01*
X348913176Y-237999760D01*
X348937001Y-237992533D01*
X348958957Y-237980797D01*
X348978203Y-237965003D01*
X348993997Y-237945757D01*
X349005733Y-237923801D01*
X349012960Y-237899976D01*
X349015400Y-237875200D01*
X349015400Y-203923485D01*
X352983321Y-199459574D01*
X352997958Y-199439435D01*
X353008384Y-199416827D01*
X353014200Y-199392619D01*
X353015400Y-199375200D01*
X353015400Y-196927806D01*
X358478203Y-191465003D01*
X358493997Y-191445757D01*
X358505733Y-191423801D01*
X358512960Y-191399976D01*
X358515400Y-191375200D01*
X358515400Y-106002200D01*
X361888400Y-106002200D01*
X361913176Y-105999760D01*
X361937001Y-105992533D01*
X361958957Y-105980797D01*
X361978203Y-105965003D01*
X361993997Y-105945757D01*
X362005733Y-105923801D01*
X362012960Y-105899976D01*
X362015400Y-105875200D01*
X362015400Y-74002200D01*
X370761400Y-74002200D01*
X370761400Y-146748200D01*
M02*
