M48
; DRILL file {KiCad (5.1.0)-1} date 17.07.2021 22:51:46
; FORMAT={-:-/ absolute / inch / decimal}
; #@! TF.CreationDate,2021-07-17T22:51:46+02:00
; #@! TF.GenerationSoftware,Kicad,Pcbnew,(5.1.0)-1
; #@! TF.FileFunction,Plated,1,2,PTH
FMAT,2
INCH
T1C0.0157
T2C0.0197
T3C0.0236
T4C0.0295
T5C0.0315
T6C0.0394
T7C0.0472
T8C0.0512
T9C0.0551
T10C0.0709
T11C0.0866
%
G90
G05
T1
X2.6865Y-7.0035
X2.745Y-7.302
X3.078Y-8.188
X3.313Y-7.855
X3.527Y-7.855
X4.547Y-8.348
X4.726Y-8.346
X5.494Y-3.955
X5.522Y-3.867
X6.824Y-7.255
X7.926Y-7.79
X7.96Y-8.332
X7.97Y-8.184
X7.972Y-8.372
X7.98Y-7.788
X7.981Y-7.838
X7.991Y-6.359
X8.019Y-7.641
X8.028Y-7.157
X8.029Y-6.739
X8.06Y-7.572
X8.083Y-5.7615
X8.087Y-6.778
X8.0876Y-6.2346
X8.144Y-7.12
X8.146Y-8.404
X8.1905Y-5.724
X8.196Y-8.431
X8.211Y-7.989
X8.215Y-7.755
X8.246Y-8.454
X8.28Y-7.644
X8.296Y-7.777
X8.296Y-8.182
X8.296Y-8.477
X8.346Y-7.707
X8.346Y-8.501
X8.397Y-8.525
X8.446Y-7.683
X8.446Y-8.55
X8.494Y-8.574
X8.546Y-7.659
X8.546Y-8.598
X8.596Y-7.635
X8.603Y-8.622
X8.6195Y-6.3035
X8.646Y-7.607
X8.698Y-8.072
X8.707Y-6.401
X8.73Y-7.551
X8.73Y-8.022
X8.743Y-6.321
X8.768Y-7.799
X8.78Y-6.167
X8.813Y-8.697
X8.816Y-7.82
X8.859Y-8.361
X8.879Y-6.201
X8.88Y-7.584
X8.887Y-8.697
X8.956Y-6.131
X8.994Y-7.515
X9.0265Y-6.7885
X9.044Y-8.174
X9.081Y-6.255
X9.148Y-6.665
X9.191Y-6.808
X9.192Y-8.922
X9.212Y-7.182
X9.214Y-7.131
X9.218Y-7.513
X9.219Y-7.582
X9.238Y-7.088
X9.2407Y-6.8622
X9.258Y-7.034
X9.29Y-7.988
X9.316Y-6.995
X9.32Y-8.91
X9.339Y-6.823
X9.342Y-7.974
X9.342Y-8.432
X9.347Y-8.702
X9.369Y-8.862
X9.369Y-8.911
X9.388Y-6.825
X9.39Y-8.704
X9.396Y-6.655
X9.43Y-8.704
X9.458Y-7.018
X9.476Y-8.703
X9.478Y-7.17
X9.487Y-6.874
X9.5Y-9.03
X9.5Y-9.111
X9.527Y-7.412
X9.535Y-6.867
X9.543Y-8.073
X9.548Y-8.488
X9.583Y-7.857
X9.593Y-7.482
X9.593Y-8.911
X9.6113Y-6.7947
X9.634Y-6.717
X9.644Y-8.488
X9.712Y-9.061
X9.717Y-8.875
X9.824Y-8.699
X9.874Y-9.06
X9.874Y-9.109
X9.8746Y-8.8284
X9.919Y-7.153
X9.959Y-9.169
X9.961Y-9.009
X10.102Y-8.828
X10.123Y-8.977
X10.125Y-9.02
X10.204Y-6.982
X10.255Y-9.109
X10.259Y-8.905
X10.321Y-9.063
X10.472Y-6.984
X10.503Y-6.846
X10.617Y-9.06
X10.624Y-8.911
X10.637Y-9.146
X10.653Y-9.101
X10.69Y-8.649
X10.69Y-8.919
X10.69Y-9.01
X10.691Y-7.856
X11.023Y-5.301
T2
X2.198Y-2.237
X2.398Y-2.237
X2.406Y-4.347
X2.444Y-4.294
X2.4558Y-6.7699
X2.4558Y-7.0061
X2.456Y-6.31
X2.458Y-6.526
X2.47Y-5.657
X2.485Y-7.764
X2.528Y-5.358
X2.589Y-5.581
X2.627Y-5.28
X2.627Y-5.39
X2.627Y-5.957
X2.634Y-5.054
X2.638Y-4.506
X2.644Y-7.766
X2.6775Y-6.2985
X2.678Y-5.389
X2.678Y-5.957
X2.684Y-4.745
X2.717Y-5.269
X2.725Y-5.073
X2.727Y-5.387
X2.728Y-5.957
X2.728Y-6.212
X2.748Y-8.677
X2.748Y-8.857
X2.748Y-9.027
X2.76Y-7.767
X2.778Y-6.253
X2.785Y-4.529
X2.805Y-5.649
X2.807Y-5.754
X2.821Y-5.114
X2.904Y-5.088
X2.918Y-8.857
X2.918Y-9.027
X2.927Y-5.39
X2.928Y-5.959
X2.928Y-8.677
X2.949Y-5.058
X2.978Y-5.392
X2.978Y-5.961
X3.007Y-7.4786
X3.028Y-5.393
X3.028Y-5.961
X3.054Y-5.076
X3.078Y-5.394
X3.078Y-5.962
X3.116Y-6.213
X3.126Y-8.319
X3.127Y-5.671
X3.128Y-5.265
X3.153Y-6.254
X3.186Y-5.094
X3.189Y-6.295
X3.227Y-8.265
X3.239Y-6.264
X3.2432Y-6.7699
X3.2432Y-7.0061
X3.244Y-6.477
X3.276Y-8.183
X3.285Y-5.052
X3.328Y-8.432
X3.391Y-7.939
X3.393Y-8.112
X3.408Y-5.217
X3.408Y-5.357
X3.408Y-5.507
X3.435Y-7.896
X3.464Y-6.48
X3.4794Y-6.7699
X3.481Y-7.006
X3.571Y-6.967
X3.597Y-6.442
X3.695Y-6.442
X3.697Y-6.088
X3.748Y-6.089
X3.748Y-6.467
X3.797Y-6.468
X3.898Y-5.975
X4.06Y-7.886
X4.07Y-3.747
X4.0994Y-3.7174
X4.14Y-6.01
X4.141Y-6.076
X4.204Y-7.782
X4.266Y-7.231
X4.31Y-7.328
X4.349Y-7.415
X4.381Y-8.489
X4.389Y-7.507
X4.426Y-7.599
X4.471Y-7.666
X4.542Y-3.581
X4.589Y-6.094
X4.636Y-6.169
X4.68Y-8.548
X4.685Y-3.581
X4.685Y-3.727
X4.774Y-8.096
X4.877Y-8.092
X4.884Y-6.945
X4.9092Y-6.2918
X4.957Y-4.755
X4.96Y-6.699
X4.96Y-6.946
X5.001Y-6.436
X5.008Y-8.319
X5.016Y-6.503
X5.05Y-3.308
X5.053Y-3.115
X5.073Y-4.996
X5.1525Y-6.49
X5.168Y-8.009
X5.293Y-6.89
X5.306Y-6.986
X5.319Y-8.027
X5.32Y-6.936
X5.3295Y-3.1925
X5.362Y-6.409
X5.372Y-4.201
X5.375Y-8.173
X5.402Y-3.342
X5.404Y-3.928
X5.437Y-7.821
X5.439Y-7.9
X5.458Y-6.733
X5.483Y-7.859
X5.501Y-4.2
X5.565Y-6.373
X5.578Y-7.918
X5.619Y-6.734
X5.672Y-6.87
X5.714Y-6.794
X5.723Y-4.847
X5.78Y-7.712
X5.782Y-7.655
X5.836Y-8.039
X5.838Y-7.891
X5.853Y-6.264
X5.874Y-7.718
X5.893Y-8.0356
X5.894Y-7.888
X5.909Y-5.001
X5.954Y-7.888
X5.975Y-8.039
X5.989Y-7.746
X5.995Y-6.887
X6.071Y-6.862
X6.219Y-5.449
X6.22Y-5.773
X6.2796Y-5.858
X6.408Y-6.885
X6.4586Y-6.4734
X6.503Y-6.253
X6.516Y-7.8016
X6.518Y-4.709
X6.572Y-6.045
X6.573Y-7.7574
X6.619Y-5.445
X6.6338Y-7.8386
X6.634Y-3.776
X6.746Y-4.758
X6.746Y-4.923
X6.8393Y-6.2843
X6.861Y-4.706
X6.88Y-6.495
X6.889Y-4.777
X6.901Y-4.837
X6.917Y-3.328
X6.919Y-4.08
X6.944Y-3.402
X6.961Y-4.839
X6.979Y-2.889
X7.001Y-3.837
X7.019Y-5.834
X7.027Y-5.894
X7.0548Y-5.7718
X7.081Y-6.559
X7.094Y-5.7276
X7.113Y-5.173
X7.132Y-4.762
X7.135Y-3.763
X7.17Y-8.517
X7.173Y-6.458
X7.174Y-7.107
X7.179Y-4.463
X7.182Y-3.843
X7.194Y-2.936
X7.217Y-3.173
X7.281Y-6.405
X7.285Y-3.846
X7.308Y-3.12
X7.33Y-3.521
X7.33Y-6.599
X7.3435Y-5.1845
X7.355Y-6.971
X7.378Y-3.079
X7.379Y-6.4
X7.38Y-3.849
X7.4014Y-7.8614
X7.421Y-7.013
X7.426Y-4.8005
X7.429Y-3.26
X7.473Y-7.302
X7.5Y-3.022
X7.517Y-6.293
X7.517Y-6.894
X7.5225Y-5.2665
X7.528Y-4.839
X7.539Y-4.9155
X7.5835Y-5.7875
X7.584Y-3.22
X7.683Y-3.892
X7.719Y-5.729
X7.775Y-2.914
X7.794Y-3.059
X7.798Y-8.083
X7.817Y-8.037
X7.8222Y-4.5322
X7.823Y-2.88
X7.829Y-4.907
X7.829Y-5.1
X7.8296Y-5.6638
X7.86Y-8.137
X7.98Y-5.743
X7.98Y-6.081
X8.029Y-3.868
X8.13Y-3.676
X8.167Y-5.837
X8.171Y-4.571
X8.1775Y-3.5145
X8.196Y-8.272
X8.23Y-3.713
X8.25Y-6.0974
X8.274Y-3.114
X8.277Y-3.901
X8.278Y-3.26
X8.281Y-5.6612
X8.282Y-5.0575
X8.313Y-4.6
X8.335Y-3.112
X8.346Y-8.032
X8.371Y-5.861
X8.409Y-3.7525
X8.424Y-6.643
X8.441Y-6.272
X8.4795Y-5.7615
X8.48Y-5.659
X8.482Y-3.059
X8.502Y-3.115
X8.531Y-3.7885
X8.582Y-5.217
X8.582Y-5.8337
X8.646Y-8.648
X8.6531Y-5.8022
X8.683Y-5.216
X8.7Y-8.672
X8.729Y-5.86
X8.7615Y-2.928
X8.7615Y-3.076
X8.783Y-3.5495
X8.783Y-3.826
X8.784Y-5.217
X8.82Y-4.564
X8.829Y-6.481
X8.8303Y-4.8807
X8.8655Y-3.0865
X8.879Y-3.7925
X8.919Y-6.542
X8.9303Y-4.8823
X8.96Y-2.928
X8.96Y-3.08
X9.026Y-3.656
X9.0335Y-3.496
X9.0605Y-2.928
X9.061Y-3.081
X9.066Y-4.463
X9.092Y-4.557
X9.094Y-4.609
X9.096Y-4.657
X9.11Y-3.1645
X9.127Y-5.901
X9.1325Y-3.774
X9.135Y-3.862
X9.154Y-5.86
X9.1605Y-2.928
X9.172Y-6.402
X9.184Y-3.299
X9.196Y-5.988
X9.223Y-6.348
X9.2605Y-2.928
X9.262Y-6.2785
X9.3155Y-5.857
X9.319Y-3.6171
X9.3545Y-5.8265
X9.3605Y-2.928
X9.372Y-5.779
X9.375Y-5.607
X9.413Y-3.6171
X9.459Y-3.573
X9.4605Y-2.928
X9.511Y-3.6171
X9.512Y-5.056
X9.5285Y-4.6265
X9.534Y-4.242
X9.558Y-3.535
X9.558Y-5.021
X9.5605Y-2.928
X9.575Y-5.157
X9.579Y-4.403
X9.583Y-5.265
X9.599Y-5.063
X9.614Y-3.6171
X9.623Y-5.593
X9.624Y-5.165
X9.647Y-5.365
X9.6605Y-2.928
X9.6728Y-6.5116
X9.679Y-4.669
X9.711Y-3.6171
X9.76Y-5.476
X9.7605Y-2.928
X9.81Y-3.6171
X9.8235Y-3.74
X9.838Y-5.939
X9.8385Y-6.295
X9.86Y-2.929
X9.884Y-3.283
X9.928Y-4.593
X9.937Y-6.556
X9.9375Y-4.2501
X9.938Y-5.893
X9.9385Y-6.272
X9.9485Y-3.084
X9.954Y-3.0215
X9.9605Y-2.928
X9.988Y-4.564
X10.009Y-3.002
X10.022Y-3.2295
X10.028Y-3.64
X10.039Y-6.253
X10.0585Y-3.1545
X10.0885Y-4.5385
X10.113Y-2.962
X10.134Y-4.601
X10.134Y-4.6935
X10.1365Y-3.0585
X10.318Y-3.777
X10.318Y-3.827
X10.318Y-3.877
X10.318Y-3.927
X10.4265Y-4.1675
X10.486Y-8.693
X10.538Y-3.777
X10.538Y-3.827
X10.538Y-3.877
X10.538Y-3.927
X10.549Y-8.695
X10.604Y-3.7225
X10.6075Y-3.9985
X10.6422Y-5.7506
X10.737Y-5.104
X10.7585Y-5.492
X10.798Y-5.775
X10.828Y-6.402
X10.85Y-5.621
X10.855Y-3.7525
X10.871Y-3.859
X10.874Y-3.4635
X10.8745Y-3.912
X10.878Y-3.987
X10.878Y-4.047
X10.8875Y-3.6245
X10.975Y-6.405
X11.032Y-5.743
X11.0375Y-6.4315
X11.043Y-6.311
X11.056Y-7.855
X11.083Y-5.52
X11.0832Y-5.1668
X11.136Y-3.8125
X11.152Y-6.3545
X11.2005Y-4.2025
X11.201Y-4.0555
X11.238Y-6.318
X11.258Y-7.495
X11.268Y-3.987
X11.289Y-4.496
X11.308Y-4.027
X11.329Y-2.504
X11.3344Y-5.2704
X11.389Y-4.465
X11.411Y-7.012
X11.413Y-5.988
X11.439Y-4.579
X11.4475Y-5.1605
X11.448Y-5.245
X11.464Y-2.521
X11.496Y-7.861
X11.538Y-4.4675
X11.585Y-5.317
X11.595Y-5.66
X11.745Y-5.846
X11.826Y-4.731
X11.826Y-4.815
X11.864Y-4.773
X11.866Y-4.862
X11.898Y-6.776
X11.917Y-6.275
X11.936Y-7.845
X11.9625Y-5.16
X11.972Y-6.252
X11.976Y-3.716
X11.977Y-3.875
X11.979Y-4.196
X11.982Y-4.035
X12.019Y-6.223
X12.1855Y-3.6165
X12.1865Y-3.711
X12.2415Y-4.717
X12.2465Y-4.9
X12.247Y-4.535
X12.248Y-4.171
X12.248Y-4.353
X12.2485Y-4.9915
X12.25Y-7.599
X12.25Y-7.811
X12.3015Y-5.91
X12.316Y-3.873
X12.316Y-4.0335
X12.387Y-5.255
X12.434Y-5.282
X12.435Y-5.648
X12.436Y-5.469
X12.5025Y-5.08
X12.691Y-5.722
X12.693Y-5.176
X12.696Y-5.358
X12.696Y-5.539
X12.922Y-7.849
X12.927Y-5.939
X13.026Y-5.396
X13.0395Y-4.991
X13.092Y-4.9375
X13.255Y-5.947
X13.295Y-3.992
X13.298Y-4.05
X13.321Y-3.39
X13.35Y-5.393
X13.357Y-3.423
X13.514Y-3.704
X13.536Y-3.541
X13.563Y-4.8475
X13.564Y-3.718
X13.5655Y-4.982
X13.59Y-3.548
X13.62Y-3.709
X13.712Y-3.2205
X13.742Y-4.9845
X13.7435Y-4.827
T3
X2.536Y-4.736
X2.6Y-4.737
X7.826Y-7.858
X7.872Y-7.873
X8.883Y-8.311
X8.927Y-8.354
X8.982Y-8.763
X9.025Y-8.763
X9.735Y-8.763
X9.78Y-8.763
X10.108Y-8.763
X10.153Y-8.763
X10.264Y-8.763
X10.309Y-8.763
X10.853Y-8.763
X10.902Y-8.763
X11.168Y-7.5715
X11.2265Y-7.5435
X11.344Y-7.549
X11.4875Y-7.253
X11.5885Y-7.191
X11.6855Y-7.274
X11.688Y-7.15
X12.395Y-7.8545
X12.5965Y-7.8565
X12.853Y-7.85
T4
X6.695Y-7.372
X6.745Y-7.322
X6.745Y-7.422
X4.412Y-3.151
X4.462Y-3.151
X4.512Y-3.151
X4.413Y-3.395
X4.463Y-3.395
X4.513Y-3.395
T5
X4.251Y-6.253
X4.3324Y-6.2922
X5.1011Y-4.1859
X5.167Y-4.186
X5.2675Y-6.1255
X5.639Y-4.677
X5.639Y-4.737
X5.804Y-4.371
X5.914Y-3.887
X5.945Y-3.742
X5.983Y-5.971
X5.983Y-6.035
X6.948Y-4.55
X6.948Y-4.617
X7.7303Y-4.1087
X7.7303Y-4.1687
X8.9304Y-4.2514
X9.232Y-4.2514
X9.232Y-4.3144
X9.253Y-5.182
X9.295Y-5.27
X10.2121Y-3.047
X10.2121Y-3.112
X10.536Y-3.5845
X10.709Y-3.4755
X10.7105Y-3.544
X11.067Y-3.317
X11.239Y-2.7285
X11.239Y-2.798
X11.8958Y-5.5994
X13.7749Y-3.8951
X13.7752Y-2.8158
X13.7776Y-4.1103
X13.7806Y-3.0913
X5.4059Y-7.0463
X5.898Y-7.0463
X3.802Y-9.157
X6.419Y-5.6841
X6.419Y-6.1762
X2.763Y-3.138
X2.8614Y-3.138
X7.0303Y-3.3715
X7.0303Y-3.9715
X7.1303Y-3.3715
X7.1303Y-3.9715
X7.2303Y-3.3715
X7.2303Y-3.9715
X7.3303Y-3.3715
X7.3303Y-3.9715
X7.4303Y-3.3715
X7.4303Y-3.9715
X7.5303Y-3.3715
X7.5303Y-3.9715
X7.6303Y-3.3715
X7.6303Y-3.9715
X7.7303Y-3.3715
X7.7303Y-3.9715
X7.8303Y-3.3715
X7.8303Y-3.9715
X7.9303Y-3.3715
X7.9303Y-3.9715
X8.0303Y-3.3715
X8.0303Y-3.9715
X8.1303Y-3.3715
X8.1303Y-3.9715
X8.2303Y-3.3715
X8.2303Y-3.9715
X8.3303Y-3.3715
X8.3303Y-3.9715
X8.4303Y-3.3715
X8.4303Y-3.9715
X8.5303Y-3.3715
X8.5303Y-3.9715
X8.6303Y-3.3715
X8.6303Y-3.9715
X8.7303Y-3.3715
X8.7303Y-3.9715
X8.8303Y-3.3715
X8.8303Y-3.9715
X8.9303Y-3.3715
X8.9303Y-3.9715
X4.3659Y-4.504
X4.858Y-4.504
X3.605Y-9.049
X4.0971Y-9.049
X2.6177Y-3.7313
X3.1098Y-3.7313
X12.0Y-7.3569
X12.0Y-7.6569
X12.1Y-7.3569
X12.1Y-7.6569
X12.2Y-7.3569
X12.2Y-7.6569
X12.3Y-7.3569
X12.3Y-7.6569
X12.4Y-7.3569
X12.4Y-7.6569
X12.5Y-7.3569
X12.5Y-7.6569
X12.6Y-7.3569
X12.6Y-7.6569
X12.7Y-7.3569
X12.7Y-7.6569
X5.8586Y-6.3799
X5.8586Y-6.6799
X5.9586Y-6.3799
X5.9586Y-6.6799
X6.0586Y-6.3799
X6.0586Y-6.6799
X6.1586Y-6.3799
X6.1586Y-6.6799
X6.2586Y-6.3799
X6.2586Y-6.6799
X6.3586Y-6.3799
X6.3586Y-6.6799
X6.4586Y-6.3799
X6.4586Y-6.6799
X6.5586Y-6.3799
X6.5586Y-6.6799
X6.6586Y-6.3799
X6.6586Y-6.6799
X6.7586Y-6.3799
X6.7586Y-6.6799
X3.0665Y-2.9085
X3.5586Y-2.9085
X6.619Y-5.6841
X6.619Y-6.1762
X4.5118Y-5.5217
X4.7087Y-5.5217
X4.3263Y-4.7982
X4.3263Y-5.2904
X3.605Y-9.157
X4.0971Y-9.157
X10.093Y-6.874
X10.5852Y-6.874
X3.5783Y-4.7982
X4.0704Y-4.7982
X7.013Y-7.654
X7.013Y-8.1461
X3.6964Y-5.722
X4.1885Y-5.722
X5.2869Y-4.066
X5.2869Y-4.5581
X6.0035Y-3.6171
X6.0035Y-4.1093
X13.135Y-7.3569
X13.135Y-7.6569
X13.235Y-7.3569
X13.235Y-7.6569
X13.335Y-7.3569
X13.335Y-7.6569
X13.435Y-7.3569
X13.435Y-7.6569
X3.6964Y-4.9163
X4.1885Y-4.9163
X5.252Y-6.358
X5.7441Y-6.358
X4.778Y-6.105
X4.778Y-6.2034
X4.9562Y-4.066
X4.9562Y-4.5581
X7.3279Y-7.654
X7.3279Y-8.1461
X6.846Y-3.6171
X6.846Y-4.1093
X5.113Y-8.111
X5.6051Y-8.111
X5.393Y-5.923
X5.8851Y-5.923
X5.1688Y-3.9715
X5.1688Y-4.4636
X5.5842Y-5.3289
X5.5842Y-5.821
X3.6964Y-5.522
X4.1885Y-5.522
X3.1456Y-3.138
X3.244Y-3.138
X5.974Y-4.4045
X6.074Y-4.3045
X6.174Y-4.4045
X3.2436Y-3.6293
X3.7358Y-3.6293
X5.4059Y-7.1616
X5.898Y-7.1616
X6.5271Y-3.617
X6.5271Y-4.117
X6.3106Y-3.9124
X6.1767Y-2.9872
X6.1767Y-3.4793
X3.5773Y-4.161
X4.0694Y-4.161
X6.219Y-4.589
X6.219Y-5.089
X2.874Y-8.0169
X2.874Y-8.509
X6.319Y-4.5964
X6.319Y-5.0885
X4.6019Y-4.7982
X4.6019Y-5.2904
X7.1704Y-7.654
X7.1704Y-8.1461
X5.82Y-4.5964
X5.82Y-5.0885
X6.0192Y-5.2463
X6.0192Y-5.5463
X6.1192Y-5.2463
X6.1192Y-5.5463
X6.2192Y-5.2463
X6.2192Y-5.5463
X6.3192Y-5.2463
X6.3192Y-5.5463
X6.4192Y-5.2463
X6.4192Y-5.5463
X6.5192Y-5.2463
X6.5192Y-5.5463
X6.6192Y-5.2463
X6.6192Y-5.5463
X6.7192Y-5.2463
X6.7192Y-5.5463
X5.4054Y-7.319
X5.8976Y-7.319
X6.019Y-4.5964
X6.019Y-5.0885
X8.046Y-7.922
X8.046Y-8.022
X8.046Y-8.122
X8.046Y-8.222
X8.146Y-7.822
X8.146Y-7.922
X8.146Y-8.022
X8.146Y-8.122
X8.146Y-8.222
X8.146Y-8.322
X8.246Y-7.822
X8.246Y-7.922
X8.246Y-8.222
X8.246Y-8.322
X8.346Y-7.822
X8.346Y-7.922
X8.346Y-8.222
X8.346Y-8.322
X8.446Y-7.822
X8.446Y-7.922
X8.446Y-8.222
X8.446Y-8.322
X8.546Y-7.822
X8.546Y-7.922
X8.546Y-8.022
X8.546Y-8.122
X8.546Y-8.222
X8.546Y-8.322
X8.646Y-7.922
X8.646Y-8.022
X8.646Y-8.122
X8.646Y-8.222
X6.9247Y-7.2148
X6.9247Y-7.5148
X7.0247Y-7.2148
X7.0247Y-7.5148
X7.1247Y-7.2148
X7.1247Y-7.5148
X7.2247Y-7.2148
X7.2247Y-7.5148
X7.3247Y-7.2148
X7.3247Y-7.5148
X7.4247Y-7.2148
X7.4247Y-7.5148
X7.5247Y-7.2148
X7.5247Y-7.5148
X3.472Y-8.765
X3.472Y-9.165
X6.8555Y-7.654
X6.8555Y-8.1461
X10.0929Y-6.978
X10.585Y-6.978
X3.2436Y-3.5151
X3.7358Y-3.5151
X3.0665Y-2.7982
X3.5586Y-2.7982
X3.5773Y-4.361
X4.0694Y-4.361
X5.849Y-3.141
X5.849Y-3.341
X5.949Y-3.241
X11.2948Y-5.4431
X11.2948Y-5.7431
X11.3948Y-5.4431
X11.3948Y-5.7431
X11.4948Y-5.4431
X11.4948Y-5.7431
X11.5948Y-5.4431
X11.5948Y-5.7431
X11.6948Y-5.4431
X11.6948Y-5.7431
X11.7948Y-5.4431
X11.7948Y-5.7431
X11.8948Y-5.4431
X11.8948Y-5.7431
X6.6334Y-3.6171
X6.6334Y-4.1093
X4.602Y-5.938
X5.0941Y-5.938
X3.6964Y-5.022
X4.1885Y-5.022
X2.6177Y-3.3612
X3.1098Y-3.3612
X3.5773Y-3.961
X4.0694Y-3.961
X2.535Y-4.0896
X2.535Y-4.3896
X2.635Y-4.0896
X2.635Y-4.3896
X2.735Y-4.0896
X2.735Y-4.3896
X2.835Y-4.0896
X2.835Y-4.3896
X2.935Y-4.0896
X2.935Y-4.3896
X3.035Y-4.0896
X3.035Y-4.3896
X3.135Y-4.0896
X3.135Y-4.3896
X3.235Y-4.0896
X3.235Y-4.3896
X3.335Y-4.0896
X3.335Y-4.3896
X5.4059Y-6.9282
X5.898Y-6.9282
X5.708Y-5.3289
X5.708Y-5.821
X6.7192Y-5.6841
X6.7192Y-6.1762
X3.5316Y-3.138
X3.63Y-3.138
X4.5319Y-4.6801
X5.024Y-4.6801
X3.6964Y-5.422
X4.1885Y-5.422
X2.6177Y-3.6053
X3.1098Y-3.6053
X9.8381Y-5.3644
X9.8381Y-5.6644
X9.9381Y-5.3644
X9.9381Y-5.6644
X10.0381Y-5.3644
X10.0381Y-5.6644
X10.1381Y-5.3644
X10.1381Y-5.6644
X10.2381Y-5.3644
X10.2381Y-5.6644
X10.3381Y-5.3644
X10.3381Y-5.6644
X10.4381Y-5.3644
X10.4381Y-5.6644
X10.5381Y-5.3644
X10.5381Y-5.6644
X3.5773Y-4.461
X4.0694Y-4.461
X6.319Y-5.6841
X6.319Y-6.1762
X4.602Y-5.834
X5.0941Y-5.834
X6.4917Y-3.188
X6.9838Y-3.188
X3.0271Y-8.0171
X3.0271Y-8.6171
X3.1271Y-8.0171
X3.1271Y-8.6171
X3.2271Y-8.0171
X3.2271Y-8.6171
X3.3271Y-8.0171
X3.3271Y-8.6171
X3.4271Y-8.0171
X3.4271Y-8.6171
X3.5271Y-8.0171
X3.5271Y-8.6171
X3.6271Y-8.0171
X3.6271Y-8.6171
X3.7271Y-8.0171
X3.7271Y-8.6171
X3.8271Y-8.0171
X3.8271Y-8.6171
X3.9271Y-8.0171
X3.9271Y-8.6171
X4.0271Y-8.0171
X4.0271Y-8.6171
X4.1271Y-8.0171
X4.1271Y-8.6171
X4.2271Y-8.0171
X4.2271Y-8.6171
X4.3271Y-8.0171
X4.3271Y-8.6171
X4.4271Y-8.0171
X4.4271Y-8.6171
X4.5271Y-8.0171
X4.5271Y-8.6171
X4.6271Y-8.0171
X4.6271Y-8.6171
X4.7271Y-8.0171
X4.7271Y-8.6171
X4.8271Y-8.0171
X4.8271Y-8.6171
X4.9271Y-8.0171
X4.9271Y-8.6171
X5.7043Y-2.9872
X5.7043Y-3.4793
X3.6965Y-5.622
X4.1886Y-5.622
X6.5897Y-4.314
X5.8736Y-3.6171
X5.8736Y-4.1093
X7.0303Y-4.3951
X7.0303Y-4.9951
X7.1303Y-4.3951
X7.1303Y-4.9951
X7.2303Y-4.3951
X7.2303Y-4.9951
X7.3303Y-4.3951
X7.3303Y-4.9951
X7.4303Y-4.3951
X7.4303Y-4.9951
X7.5303Y-4.3951
X7.5303Y-4.9951
X7.6303Y-4.3951
X7.6303Y-4.9951
X7.7303Y-4.3951
X7.7303Y-4.9951
X7.8303Y-4.3951
X7.8303Y-4.9951
X7.9303Y-4.3951
X7.9303Y-4.9951
X8.0303Y-4.3951
X8.0303Y-4.9951
X8.1303Y-4.3951
X8.1303Y-4.9951
X8.2303Y-4.3951
X8.2303Y-4.9951
X8.3303Y-4.3951
X8.3303Y-4.9951
X8.4303Y-4.3951
X8.4303Y-4.9951
X8.5303Y-4.3951
X8.5303Y-4.9951
X8.6303Y-4.3951
X8.6303Y-4.9951
X8.7303Y-4.3951
X8.7303Y-4.9951
X8.8303Y-4.3951
X8.8303Y-4.9951
X8.9303Y-4.3951
X8.9303Y-4.9951
X3.6964Y-5.222
X4.1885Y-5.222
X6.419Y-4.5964
X6.419Y-5.0885
X5.6023Y-7.4765
X7.477Y-7.654
X7.477Y-8.1461
X7.1165Y-2.6329
X7.1165Y-2.8329
X7.2165Y-2.6329
X7.2165Y-2.8329
X7.3165Y-2.6329
X7.3165Y-2.8329
X7.4165Y-2.6329
X7.4165Y-2.8329
X7.5165Y-2.6329
X7.5165Y-2.8329
X7.6165Y-2.6329
X7.6165Y-2.8329
X7.7165Y-2.6329
X7.7165Y-2.8329
X5.5468Y-2.9872
X5.5468Y-3.4793
X10.9655Y-3.1755
X11.0639Y-3.1755
X3.461Y-4.0947
X3.461Y-4.39
X6.3263Y-2.9872
X6.3263Y-3.4793
X6.1192Y-5.6841
X6.1192Y-6.1762
X9.8381Y-6.088
X9.8381Y-6.688
X9.9381Y-6.088
X9.9381Y-6.688
X10.0381Y-6.088
X10.0381Y-6.688
X10.1381Y-6.088
X10.1381Y-6.688
X10.2381Y-6.088
X10.2381Y-6.688
X10.3381Y-6.088
X10.3381Y-6.688
X10.4381Y-6.088
X10.4381Y-6.688
X10.5381Y-6.088
X10.5381Y-6.688
X10.6381Y-6.088
X10.6381Y-6.688
X10.7381Y-6.088
X10.7381Y-6.688
X10.8381Y-6.088
X10.8381Y-6.688
X10.9381Y-6.088
X10.9381Y-6.688
X11.0381Y-6.088
X11.0381Y-6.688
X11.1381Y-6.088
X11.1381Y-6.688
X11.2381Y-6.088
X11.2381Y-6.688
X11.3381Y-6.088
X11.3381Y-6.688
X11.4381Y-6.088
X11.4381Y-6.688
X11.5381Y-6.088
X11.5381Y-6.688
X11.6381Y-6.088
X11.6381Y-6.688
X11.7381Y-6.088
X11.7381Y-6.688
X7.0289Y-6.2156
X7.521Y-6.2156
X5.393Y-6.037
X5.8851Y-6.037
X10.978Y-7.3569
X10.978Y-7.6569
X11.078Y-7.3569
X11.078Y-7.6569
X11.178Y-7.3569
X11.178Y-7.6569
X11.278Y-7.3569
X11.278Y-7.6569
X11.378Y-7.3569
X11.378Y-7.6569
X11.478Y-7.3569
X11.478Y-7.6569
X11.578Y-7.3569
X11.578Y-7.6569
X11.678Y-7.3569
X11.678Y-7.6569
X7.477Y-7.8509
X5.269Y-5.721
X5.269Y-6.2131
X6.4917Y-2.9872
X6.9838Y-2.9872
X3.8019Y-9.049
X6.619Y-4.5964
X6.619Y-5.0885
X5.7205Y-4.5964
X5.7205Y-5.0885
X4.8973Y-5.938
X6.719Y-4.5964
X6.719Y-5.0885
X7.0429Y-8.3415
X7.0429Y-8.5345
X2.4484Y-2.9085
X2.9405Y-2.9085
X6.255Y-6.9971
X6.7471Y-6.9971
X2.4484Y-2.5817
X2.9405Y-2.5817
X3.6964Y-5.322
X4.1885Y-5.322
X4.06Y-6.8125
X4.06Y-7.1125
X4.16Y-6.8125
X4.16Y-7.1125
X4.26Y-6.8125
X4.26Y-7.1125
X4.36Y-6.8125
X4.36Y-7.1125
X4.46Y-6.8125
X4.46Y-7.1125
X4.56Y-6.8125
X4.56Y-7.1125
X4.66Y-6.8125
X4.66Y-7.1125
X4.76Y-6.8125
X4.76Y-7.1125
X4.86Y-6.8125
X4.86Y-7.1125
X4.96Y-6.8125
X4.96Y-7.1125
X5.06Y-6.8125
X5.06Y-7.1125
X5.16Y-6.8125
X5.16Y-7.1125
X8.7134Y-2.6337
X8.7134Y-2.8337
X8.8134Y-2.6337
X8.8134Y-2.8337
X8.9134Y-2.6337
X8.9134Y-2.8337
X9.0134Y-2.6337
X9.0134Y-2.8337
X9.1134Y-2.6337
X9.1134Y-2.8337
X9.2134Y-2.6337
X9.2134Y-2.8337
X9.3134Y-2.6337
X9.3134Y-2.8337
X9.4134Y-2.6337
X9.4134Y-2.8337
X9.5134Y-2.6337
X9.5134Y-2.8337
X9.6134Y-2.6337
X9.6134Y-2.8337
X9.7134Y-2.6337
X9.7134Y-2.8337
X9.8134Y-2.6337
X9.8134Y-2.8337
X9.9134Y-2.6337
X9.9134Y-2.8337
X10.0134Y-2.6337
X10.0134Y-2.8337
X10.1134Y-2.6337
X10.1134Y-2.8337
X5.5468Y-4.066
X5.5468Y-4.5581
X5.4054Y-7.634
X5.8976Y-7.634
X11.4027Y-5.8809
X11.8948Y-5.8809
X3.184Y-8.963
X3.184Y-9.1559
X2.6177Y-3.4793
X3.1098Y-3.4793
X3.5773Y-4.261
X4.0694Y-4.261
X8.894Y-7.923
X8.894Y-8.023
X8.894Y-8.123
X8.894Y-8.223
X8.994Y-7.823
X8.994Y-7.923
X8.994Y-8.023
X8.994Y-8.123
X8.994Y-8.223
X8.994Y-8.323
X9.094Y-7.823
X9.094Y-7.923
X9.094Y-8.223
X9.094Y-8.323
X9.194Y-7.823
X9.194Y-7.923
X9.194Y-8.223
X9.194Y-8.323
X9.294Y-7.823
X9.294Y-7.923
X9.294Y-8.223
X9.294Y-8.323
X9.394Y-7.823
X9.394Y-7.923
X9.394Y-8.023
X9.394Y-8.123
X9.394Y-8.223
X9.394Y-8.323
X9.494Y-7.923
X9.494Y-8.023
X9.494Y-8.123
X9.494Y-8.223
X5.468Y-6.232
X5.568Y-6.132
X5.668Y-6.232
X6.1373Y-3.6171
X6.1373Y-4.1093
X6.7397Y-3.6171
X6.7397Y-4.1093
X4.7397Y-4.7982
X4.7397Y-5.2904
X3.5773Y-4.561
X4.0694Y-4.561
X2.6177Y-3.8494
X3.1098Y-3.8494
X5.4059Y-6.814
X5.898Y-6.814
X3.0665Y-2.5856
X3.5586Y-2.5856
X6.519Y-5.6841
X6.519Y-6.1762
X4.8346Y-5.5217
X5.0315Y-5.5217
X4.363Y-5.539
X4.363Y-6.0311
X2.535Y-4.5888
X2.535Y-4.8888
X2.635Y-4.5888
X2.635Y-4.8888
X2.735Y-4.5888
X2.735Y-4.8888
X2.835Y-4.5888
X2.835Y-4.8888
X2.935Y-4.5888
X2.935Y-4.8888
X3.035Y-4.5888
X3.035Y-4.8888
X3.135Y-4.5888
X3.135Y-4.8888
X3.235Y-4.5888
X3.235Y-4.8888
X3.335Y-4.5888
X3.335Y-4.8888
X3.5773Y-4.6608
X4.0694Y-4.6608
X5.919Y-4.5964
X5.919Y-5.0885
X4.4641Y-4.0896
X4.4641Y-4.3896
X4.5641Y-4.0896
X4.5641Y-4.3896
X4.6641Y-4.0896
X4.6641Y-4.3896
X4.7641Y-4.0896
X4.7641Y-4.3896
X6.3106Y-3.6171
X6.3106Y-4.1093
X6.4917Y-3.088
X6.9838Y-3.088
X7.0299Y-4.1683
X7.522Y-4.1683
X6.519Y-4.5964
X6.519Y-5.0885
X5.0625Y-3.9715
X5.0625Y-4.4636
X6.9799Y-7.0817
X7.472Y-7.0817
X12.232Y-6.5213
X12.232Y-6.6
X6.255Y-6.8849
X6.7471Y-6.8849
X5.4129Y-4.066
X5.4129Y-4.5581
X6.052Y-2.9872
X6.052Y-3.4793
X4.4641Y-4.7982
X4.4641Y-5.2904
X5.466Y-5.329
X5.466Y-5.8211
X6.5771Y-3.406
X6.774Y-3.406
X6.4208Y-3.617
X6.4208Y-4.117
X6.968Y-5.1919
X7.4602Y-5.1919
X6.698Y-7.6539
X6.698Y-8.146
X5.87Y-5.6644
X5.87Y-5.7431
X3.368Y-8.765
X3.368Y-9.165
X5.4054Y-7.4765
X5.8976Y-7.4765
X10.179Y-3.295
X10.179Y-3.495
X10.279Y-3.395
X3.2436Y-3.3812
X3.7358Y-3.3812
X6.119Y-4.5964
X6.119Y-5.0885
X3.244Y-3.743
X3.7361Y-3.743
X5.82Y-4.7932
X10.7381Y-5.94
X11.2303Y-5.94
X7.0303Y-5.3793
X7.0303Y-5.9793
X7.1303Y-5.3793
X7.1303Y-5.9793
X7.2303Y-5.3793
X7.2303Y-5.9793
X7.3303Y-5.3793
X7.3303Y-5.9793
X7.4303Y-5.3793
X7.4303Y-5.9793
X7.5303Y-5.3793
X7.5303Y-5.9793
X7.6303Y-5.3793
X7.6303Y-5.9793
X7.7303Y-5.3793
X7.7303Y-5.9793
X7.8303Y-5.3793
X7.8303Y-5.9793
X7.9303Y-5.3793
X7.9303Y-5.9793
X8.0303Y-5.3793
X8.0303Y-5.9793
X8.1303Y-5.3793
X8.1303Y-5.9793
X8.2303Y-5.3793
X8.2303Y-5.9793
X8.3303Y-5.3793
X8.3303Y-5.9793
X8.4303Y-5.3793
X8.4303Y-5.9793
X8.5303Y-5.3793
X8.5303Y-5.9793
X8.6303Y-5.3793
X8.6303Y-5.9793
X8.7303Y-5.3793
X8.7303Y-5.9793
X8.8303Y-5.3793
X8.8303Y-5.9793
X8.9303Y-5.3793
X8.9303Y-5.9793
X6.2549Y-7.109
X6.747Y-7.109
X6.219Y-5.6839
X6.219Y-6.176
X9.8381Y-4.3557
X9.8381Y-4.9557
X9.9381Y-4.3557
X9.9381Y-4.9557
X10.0381Y-4.3557
X10.0381Y-4.9557
X10.1381Y-4.3557
X10.1381Y-4.9557
X10.2381Y-4.3557
X10.2381Y-4.9557
X10.3381Y-4.3557
X10.3381Y-4.9557
X10.4381Y-4.3557
X10.4381Y-4.9557
X10.5381Y-4.3557
X10.5381Y-4.9557
X10.6381Y-4.3557
X10.6381Y-4.9557
X10.7381Y-4.3557
X10.7381Y-4.9557
X10.8381Y-4.3557
X10.8381Y-4.9557
X10.9381Y-4.3557
X10.9381Y-4.9557
X11.0381Y-4.3557
X11.0381Y-4.9557
X11.1381Y-4.3557
X11.1381Y-4.9557
X11.2381Y-4.3557
X11.2381Y-4.9557
X11.3381Y-4.3557
X11.3381Y-4.9557
X11.4381Y-4.3557
X11.4381Y-4.9557
X11.5381Y-4.3557
X11.5381Y-4.9557
X11.6381Y-4.3557
X11.6381Y-4.9557
X11.7381Y-4.3557
X11.7381Y-4.9557
X2.745Y-8.017
X2.745Y-8.5091
X2.4484Y-2.7982
X2.9405Y-2.7982
X3.6964Y-5.122
X4.1885Y-5.122
X10.6649Y-5.3888
X11.157Y-5.3888
X3.462Y-4.5937
X3.462Y-4.889
X6.2948Y-4.4132
X6.7869Y-4.4132
X4.6019Y-5.73
X5.094Y-5.73
X6.2944Y-4.3138
X6.7865Y-4.3138
X1.9574Y-2.928
X2.107Y-2.928
X3.5773Y-4.061
X4.0694Y-4.061
T6
X5.146Y-8.936
X5.146Y-9.014
X5.146Y-9.09
X5.1728Y-4.2766
X5.235Y-7.609
X5.586Y-4.483
X7.734Y-7.388
X7.735Y-7.284
X7.994Y-8.763
X8.074Y-8.763
X8.156Y-8.763
X10.771Y-8.053
X10.771Y-8.139
X10.822Y-8.223
X11.208Y-5.108
X11.8255Y-6.5065
X11.8255Y-6.8325
X11.8255Y-6.9155
X11.8255Y-7.006
X13.0118Y-6.1762
X13.096Y-6.1762
X13.1808Y-6.1762
X13.36Y-6.064
X13.437Y-6.064
X13.469Y-7.005
X13.498Y-5.646
X13.498Y-5.724
X13.498Y-5.803
X13.517Y-6.064
X13.759Y-5.232
X13.834Y-5.232
X4.4641Y-3.8691
X4.5641Y-3.8691
X4.6641Y-3.8691
X4.7641Y-3.8691
X4.8641Y-3.8691
X3.2633Y-2.7982
X2.8145Y-3.7313
X2.8145Y-3.3612
X3.5389Y-3.743
X13.7751Y-2.0817
X13.7751Y-2.19
X13.7751Y-2.2982
X13.7751Y-2.4065
X13.7751Y-2.5148
X13.8775Y-2.1358
X13.8775Y-2.2441
X13.8775Y-2.3524
X13.8775Y-2.4606
X13.7751Y-3.3415
X13.7751Y-3.4498
X13.7751Y-3.5581
X13.7751Y-3.6663
X13.7751Y-3.7746
X13.8775Y-3.3957
X13.8775Y-3.5039
X13.8775Y-3.6122
X13.8775Y-3.7205
X2.546Y-7.223
X2.546Y-7.323
X2.546Y-7.423
X2.546Y-7.523
X2.546Y-7.623
X2.646Y-7.223
X2.646Y-7.323
X2.646Y-7.423
X2.646Y-7.523
X2.646Y-7.623
X5.329Y-2.444
X5.429Y-2.444
X5.529Y-2.444
X5.629Y-2.444
X6.222Y-2.444
X2.7436Y-2.7982
X2.8145Y-3.4793
X11.1964Y-8.2234
X11.2964Y-8.2234
X11.3964Y-8.2234
X11.4964Y-8.2234
X11.5964Y-8.2234
X11.6964Y-8.2234
X11.7964Y-8.2234
X11.8964Y-8.2234
X11.9964Y-8.2234
X12.0964Y-8.2234
X12.1964Y-8.2234
X12.2964Y-8.2234
X12.3964Y-8.2234
X12.4964Y-8.2234
X12.5964Y-8.2234
X12.6964Y-8.2234
X12.7964Y-8.2234
X12.8964Y-8.2234
X12.9964Y-8.2234
X13.0964Y-8.2234
X13.1964Y-8.2234
X13.2964Y-8.2234
X13.3964Y-8.2234
X13.4964Y-8.2234
X3.6675Y-6.8225
X3.6675Y-6.9225
X3.7675Y-6.8225
X3.7675Y-6.9225
X2.8145Y-3.8494
X3.5389Y-3.5151
X9.925Y-8.164
X9.925Y-8.264
X9.925Y-8.364
X9.925Y-8.464
X10.025Y-8.164
X10.025Y-8.264
X10.025Y-8.364
X10.025Y-8.464
X12.868Y-4.435
X12.968Y-4.435
X13.068Y-4.435
X13.168Y-4.435
X2.769Y-7.889
X2.869Y-7.889
X10.185Y-8.165
X10.185Y-8.265
X10.285Y-8.165
X10.285Y-8.265
X3.2633Y-2.9085
X2.7436Y-2.5817
X3.5389Y-3.6293
X2.7436Y-2.9085
T7
X12.1468Y-2.436
X12.2169Y-2.3179
X12.2869Y-2.436
X12.357Y-2.3179
X12.4271Y-2.436
X12.4972Y-2.3179
X12.5673Y-2.436
X12.6373Y-2.3179
X12.7074Y-2.436
X12.7775Y-2.3179
X12.8476Y-2.436
X12.9177Y-2.3179
X12.9877Y-2.436
T8
X5.1726Y-4.9152
X5.271Y-5.3089
X5.3694Y-4.9152
T9
X5.5783Y-2.1821
X5.6767Y-2.2805
X5.8736Y-2.1821
X6.0704Y-2.2805
X6.1688Y-2.1821
X2.8106Y-2.1821
X2.8106Y-2.3789
X2.909Y-2.2805
X3.1058Y-2.1821
X3.3027Y-2.2805
X3.4011Y-2.1821
X3.4011Y-2.3789
T10
X2.2003Y-2.0226
X2.2988Y-2.5148
X2.2988Y-2.6624
X2.2988Y-2.81
X2.3972Y-2.0226
T7
G00X3.9306Y-2.7392
M15
G01X3.9306Y-2.8494
M16
G05
G00X4.3696Y-1.8494
M15
G01X4.4405Y-1.8494
M16
G05
G00X4.3696Y-3.7392
M15
G01X4.4405Y-3.7392
M16
G05
G00X5.1117Y-2.7392
M15
G01X5.1117Y-2.8494
M16
G05
T9
G00X5.7751Y-1.7884
M15
G01X5.6728Y-1.7884
M16
G05
G00X6.0842Y-1.7884
M15
G01X5.9621Y-1.7884
M16
G05
G00X3.0173Y-1.7884
M15
G01X2.8952Y-1.7884
M16
G05
G00X3.3165Y-1.7884
M15
G01X3.1944Y-1.7884
M16
G05
T11
G00X12.4562Y-2.7116
M15
G01X12.6531Y-2.7116
M16
G05
G00X11.2751Y-9.4439
M15
G01X11.472Y-9.4439
M16
G05
G00X14.3263Y-6.7864
M15
G01X14.3263Y-6.5896
M16
G05
G00X2.0429Y-6.7864
M15
G01X2.0429Y-6.5896
M16
G05
G00X5.7633Y-9.4439
M15
G01X5.9602Y-9.4439
M16
G05
G00X5.7633Y-2.7116
M15
G01X5.9602Y-2.7116
M16
G05
G00X2.0429Y-4.1093
M15
G01X2.0429Y-3.9124
M16
G05
T0
M30
